<?xml version="1.0" encoding="UTF-8"?>
<svg id="Calque_1" data-name="Calque 1" xmlns="http://www.w3.org/2000/svg" viewBox="0 0 159.87 157.49">
  <defs>
    <style>
      .cls-1 {
        fill: #f9f;
      }
    </style>
  </defs>
  <circle class="cls-1" cx="79.94" cy="71.38" r="53.58"/>
  <g>
    <circle cx="74.93" cy="59.16" r="1.88"/>
    <circle cx="74.93" cy="55.4" r="1.88"/>
    <circle cx="78.68" cy="55.4" r="1.88"/>
    <circle cx="82.43" cy="55.4" r="1.88"/>
    <circle cx="82.43" cy="59.16" r="1.88"/>
    <circle cx="86.19" cy="59.16" r="1.88"/>
    <circle cx="89.94" cy="59.16" r="1.88"/>
    <circle cx="89.94" cy="62.91" r="1.88"/>
    <circle cx="86.19" cy="62.91" r="1.88"/>
    <circle cx="71.17" cy="59.16" r="1.88"/>
    <circle cx="67.42" cy="59.16" r="1.88"/>
    <circle cx="71.17" cy="62.91" r="1.88"/>
    <circle cx="67.42" cy="62.91" r="1.88"/>
    <circle cx="71.17" cy="66.67" r="1.88"/>
    <circle cx="67.42" cy="66.67" r="1.88"/>
    <circle cx="71.17" cy="70.42" r="1.88"/>
    <circle cx="67.42" cy="70.42" r="1.88"/>
    <circle cx="63.67" cy="70.42" r="1.88"/>
    <circle cx="63.67" cy="74.17" r="1.88"/>
    <circle cx="67.42" cy="74.17" r="1.88"/>
    <circle cx="71.17" cy="74.17" r="1.88"/>
    <circle cx="63.67" cy="77.93" r="1.88"/>
    <circle cx="67.42" cy="77.93" r="1.88"/>
    <circle cx="67.42" cy="81.68" r="1.88"/>
    <circle cx="71.17" cy="81.68" r="1.88"/>
    <circle cx="71.17" cy="85.43" r="1.88"/>
    <circle cx="71.17" cy="89.19" r="1.88"/>
    <circle cx="74.93" cy="89.19" r="1.88"/>
    <circle cx="78.68" cy="89.19" r="1.88"/>
    <circle cx="82.43" cy="89.19" r="1.88"/>
    <circle cx="82.43" cy="85.43" r="1.88"/>
    <circle cx="86.19" cy="85.43" r="1.88"/>
    <circle cx="86.19" cy="81.68" r="1.88"/>
    <circle cx="89.94" cy="81.68" r="1.88"/>
    <circle cx="86.19" cy="77.93" r="1.88"/>
    <circle cx="89.94" cy="77.93" r="1.88"/>
    <circle cx="93.7" cy="70.42" r="1.88"/>
    <circle cx="97.45" cy="66.67" r="1.88"/>
    <circle cx="97.45" cy="70.42" r="1.88"/>
    <circle cx="97.45" cy="77.93" r="1.88"/>
    <circle cx="97.45" cy="81.68" r="1.88"/>
    <circle cx="97.45" cy="85.43" r="1.88"/>
    <circle cx="93.7" cy="89.19" r="1.88"/>
    <circle cx="101.2" cy="74.17" r="1.88"/>
    <circle cx="74.93" cy="59.16" r="1.88"/>
    <circle cx="104.96" cy="77.93" r="1.88"/>
    <circle cx="104.96" cy="74.17" r="1.88"/>
    <circle cx="108.71" cy="74.17" r="1.88"/>
    <circle cx="101.2" cy="77.93" r="1.88"/>
    <circle cx="101.2" cy="70.42" r="1.88"/>
    <circle cx="97.45" cy="62.91" r="1.88"/>
    <circle cx="101.2" cy="59.16" r="1.88"/>
    <circle cx="104.96" cy="59.16" r="1.88"/>
    <circle cx="108.71" cy="59.16" r="1.88"/>
    <circle cx="112.46" cy="59.16" r="1.88"/>
    <circle cx="108.71" cy="62.91" r="1.88"/>
    <circle cx="101.2" cy="62.91" r="1.88"/>
    <circle cx="104.96" cy="62.91" r="1.88"/>
    <circle cx="116.22" cy="62.91" r="1.88"/>
    <circle cx="112.46" cy="70.42" r="1.88"/>
    <circle cx="104.96" cy="70.42" r="1.88"/>
    <circle cx="112.46" cy="74.17" r="1.88"/>
    <circle cx="119.97" cy="77.93" r="1.88"/>
    <circle cx="119.97" cy="81.68" r="1.88"/>
    <circle cx="119.97" cy="85.43" r="1.88"/>
    <circle cx="101.2" cy="81.68" r="1.88"/>
    <circle cx="101.2" cy="85.43" r="1.88"/>
    <circle cx="97.45" cy="89.19" r="1.88"/>
    <circle cx="116.22" cy="77.93" r="1.88"/>
    <circle cx="108.71" cy="70.42" r="1.88"/>
    <circle cx="112.46" cy="62.91" r="1.88"/>
    <circle cx="116.22" cy="66.67" r="1.88"/>
    <circle cx="116.22" cy="70.42" r="1.88"/>
    <circle cx="48.65" cy="77.93" r="1.88"/>
    <circle cx="52.4" cy="77.93" r="1.88"/>
    <circle cx="52.4" cy="70.42" r="1.88"/>
    <circle cx="48.65" cy="70.42" r="1.88"/>
    <circle cx="44.9" cy="70.42" r="1.88"/>
    <circle cx="44.9" cy="74.17" r="1.88"/>
    <circle cx="48.65" cy="74.17" r="1.88"/>
    <circle cx="52.4" cy="74.17" r="1.88"/>
    <circle cx="59.91" cy="62.91" r="1.88"/>
    <circle cx="56.16" cy="62.91" r="1.88"/>
    <circle cx="52.4" cy="62.91" r="1.88"/>
    <circle cx="44.9" cy="66.67" r="1.88"/>
    <circle cx="48.65" cy="66.67" r="1.88"/>
    <circle cx="52.4" cy="66.67" r="1.88"/>
    <circle cx="56.16" cy="55.4" r="1.88"/>
    <circle cx="52.4" cy="55.4" r="1.88"/>
    <circle cx="48.65" cy="55.4" r="1.88"/>
    <circle cx="48.65" cy="59.16" r="1.88"/>
    <circle cx="52.4" cy="59.16" r="1.88"/>
    <circle cx="56.16" cy="59.16" r="1.88"/>
    <circle cx="67.42" cy="47.9" r="1.88"/>
    <circle cx="63.67" cy="47.9" r="1.88"/>
    <circle cx="59.91" cy="47.9" r="1.88"/>
    <circle cx="59.91" cy="51.65" r="1.88"/>
    <circle cx="63.67" cy="51.65" r="1.88"/>
    <circle cx="78.68" cy="44.14" r="1.88"/>
    <circle cx="74.93" cy="44.14" r="1.88"/>
    <circle cx="71.17" cy="44.14" r="1.88"/>
    <circle cx="71.17" cy="47.9" r="1.88"/>
    <circle cx="74.93" cy="47.9" r="1.88"/>
    <circle cx="78.68" cy="47.9" r="1.88"/>
    <circle cx="56.16" cy="51.65" r="1.88"/>
    <circle cx="56.16" cy="47.9" r="1.88"/>
    <circle cx="52.4" cy="47.9" r="1.88"/>
    <circle cx="44.9" cy="55.4" r="1.88"/>
    <circle cx="56.16" cy="85.43" r="1.88"/>
    <circle cx="56.16" cy="81.68" r="1.88"/>
    <circle cx="56.16" cy="74.17" r="1.88"/>
    <circle cx="56.16" cy="77.93" r="1.88"/>
    <circle cx="63.67" cy="92.94" r="1.88"/>
    <circle cx="59.91" cy="89.19" r="1.88"/>
    <circle cx="59.91" cy="85.43" r="1.88"/>
    <circle cx="67.42" cy="96.7" r="1.88"/>
    <circle cx="63.67" cy="89.19" r="1.88"/>
    <circle cx="59.91" cy="92.94" r="1.88"/>
  </g>
</svg>