<?xml version="1.0" encoding="UTF-8"?>
<svg id="Calque_1" data-name="Calque 1" xmlns="http://www.w3.org/2000/svg" viewBox="0 0 372.71 367.59">
  <defs>
    <style>
      .cls-1 {
        fill: #1d561d;
      }

      .cls-2 {
        fill: #fff;
      }
    </style>
  </defs>
  <circle class="cls-1" cx="260.84" cy="40.35" r="8.88"/>
  <circle class="cls-1" cx="243.08" cy="39.64" r="8.88"/>
  <circle class="cls-1" cx="225.33" cy="39.64" r="8.88"/>
  <circle class="cls-1" cx="207.57" cy="39.64" r="8.88"/>
  <circle class="cls-1" cx="189.82" cy="39.64" r="8.88"/>
  <circle class="cls-1" cx="189.82" cy="57.39" r="8.88"/>
  <circle class="cls-1" cx="189.82" cy="75.15" r="8.88"/>
  <circle class="cls-1" cx="189.82" cy="92.9" r="8.88"/>
  <circle class="cls-1" cx="205.5" cy="84.02" r="8.88"/>
  <circle class="cls-1" cx="223.62" cy="84.02" r="8.88"/>
  <circle class="cls-1" cx="241.17" cy="84.02" r="8.88"/>
  <circle class="cls-1" cx="189.82" cy="110.65" r="8.88"/>
  <circle class="cls-1" cx="189.82" cy="128.54" r="8.88"/>
  <circle class="cls-1" cx="189.82" cy="146.16" r="8.88"/>
  <circle class="cls-2" cx="171.89" cy="145.57" r="8.88"/>
  <circle class="cls-2" cx="163.01" cy="129.9" r="8.88"/>
  <circle class="cls-2" cx="148.07" cy="120.25" r="8.88"/>
  <circle class="cls-2" cx="129.8" cy="116.99" r="8.88"/>
  <circle class="cls-2" cx="112.04" cy="119.53" r="8.88"/>
  <circle class="cls-2" cx="96.26" cy="128.54" r="8.88"/>
  <circle class="cls-2" cx="83.78" cy="141.13" r="8.88"/>
  <circle class="cls-2" cx="74.9" cy="157.06" r="8.88"/>
  <circle class="cls-2" cx="71.58" cy="174.4" r="8.88"/>
  <circle class="cls-2" cx="74.9" cy="192.16" r="8.88"/>
  <circle class="cls-2" cx="83.78" cy="207.37" r="8.88"/>
  <circle class="cls-2" cx="96.26" cy="220.04" r="8.88"/>
  <circle class="cls-2" cx="112.93" cy="227.36" r="8.88"/>
  <circle class="cls-2" cx="130.68" cy="227.36" r="8.88"/>
  <circle class="cls-2" cx="148.44" cy="224.27" r="8.88"/>
  <circle class="cls-2" cx="164.02" cy="215.39" r="8.88"/>
  <circle class="cls-2" cx="174.96" cy="200.34" r="8.88"/>
  <circle class="cls-1" cx="193.21" cy="202.29" r="8.88"/>
  <circle class="cls-1" cx="210.96" cy="200.34" r="8.88"/>
  <circle class="cls-1" cx="228.72" cy="198.49" r="8.88"/>
  <circle class="cls-1" cx="246.47" cy="202.29" r="8.88"/>
  <circle class="cls-1" cx="258.82" cy="215.6" r="8.88"/>
  <circle class="cls-1" cx="256.97" cy="233.35" r="8.88"/>
  <circle class="cls-1" cx="245.06" cy="246.67" r="8.88"/>
  <circle class="cls-1" cx="227.3" cy="248.87" r="8.88"/>
  <circle class="cls-1" cx="209.55" cy="248.87" r="8.88"/>
  <circle class="cls-1" cx="193.21" cy="220.15" r="8.88"/>
  <circle class="cls-1" cx="193.21" cy="237.8" r="8.88"/>
  <circle class="cls-1" cx="193.21" cy="255.55" r="8.88"/>
  <circle class="cls-1" cx="193.21" cy="273.3" r="8.88"/>
  <circle class="cls-1" cx="193.21" cy="291.72" r="8.88"/>
  <circle class="cls-1" cx="193.21" cy="310.71" r="8.88"/>
  <circle class="cls-1" cx="238.77" cy="262.65" r="8.88"/>
  <circle class="cls-1" cx="247.09" cy="277.75" r="8.88"/>
  <circle class="cls-1" cx="255.41" cy="294.13" r="8.88"/>
  <circle class="cls-1" cx="264.29" cy="309.7" r="8.88"/>
</svg>