<?xml version="1.0" encoding="UTF-8"?>
<svg id="Calque_1" data-name="Calque 1" xmlns="http://www.w3.org/2000/svg" viewBox="0 0 155.7 155.33">
  <defs>
    <style>
      .cls-1 {
        fill: #fff;
      }
    </style>
  </defs>
  <circle cx="78.89" cy="74.33" r="42.74"/>
  <g>
    <ellipse class="cls-1" cx="73.21" cy="65.52" rx="1.49" ry="1.47"/>
    <ellipse class="cls-1" cx="73.21" cy="62.59" rx="1.49" ry="1.47"/>
    <ellipse class="cls-1" cx="76.2" cy="62.59" rx="1.49" ry="1.47"/>
    <ellipse class="cls-1" cx="79.19" cy="62.59" rx="1.49" ry="1.47"/>
    <ellipse class="cls-1" cx="79.19" cy="65.52" rx="1.49" ry="1.47"/>
    <ellipse class="cls-1" cx="82.17" cy="65.52" rx="1.49" ry="1.47"/>
    <ellipse class="cls-1" cx="85.16" cy="65.52" rx="1.49" ry="1.47"/>
    <ellipse class="cls-1" cx="85.16" cy="68.46" rx="1.49" ry="1.47"/>
    <ellipse class="cls-1" cx="82.17" cy="68.46" rx="1.49" ry="1.47"/>
    <ellipse class="cls-1" cx="70.22" cy="65.52" rx="1.49" ry="1.47"/>
    <ellipse class="cls-1" cx="67.23" cy="65.52" rx="1.49" ry="1.47"/>
    <ellipse class="cls-1" cx="70.22" cy="68.46" rx="1.49" ry="1.47"/>
    <ellipse class="cls-1" cx="67.23" cy="68.46" rx="1.49" ry="1.47"/>
    <ellipse class="cls-1" cx="70.22" cy="71.4" rx="1.49" ry="1.47"/>
    <ellipse class="cls-1" cx="67.23" cy="71.4" rx="1.49" ry="1.47"/>
    <ellipse class="cls-1" cx="70.22" cy="74.33" rx="1.49" ry="1.47"/>
    <ellipse class="cls-1" cx="67.23" cy="74.33" rx="1.49" ry="1.47"/>
    <ellipse class="cls-1" cx="64.24" cy="74.33" rx="1.49" ry="1.47"/>
    <ellipse class="cls-1" cx="64.24" cy="77.27" rx="1.49" ry="1.47"/>
    <ellipse class="cls-1" cx="67.23" cy="77.27" rx="1.49" ry="1.47"/>
    <ellipse class="cls-1" cx="70.22" cy="77.27" rx="1.49" ry="1.47"/>
    <ellipse class="cls-1" cx="64.24" cy="80.21" rx="1.49" ry="1.47"/>
    <ellipse class="cls-1" cx="67.23" cy="80.21" rx="1.49" ry="1.47"/>
    <ellipse class="cls-1" cx="67.23" cy="83.15" rx="1.49" ry="1.47"/>
    <ellipse class="cls-1" cx="70.22" cy="83.15" rx="1.49" ry="1.47"/>
    <ellipse class="cls-1" cx="70.22" cy="86.08" rx="1.49" ry="1.47"/>
    <ellipse class="cls-1" cx="70.22" cy="89.02" rx="1.49" ry="1.47"/>
    <ellipse class="cls-1" cx="73.21" cy="89.02" rx="1.49" ry="1.47"/>
    <ellipse class="cls-1" cx="76.2" cy="89.02" rx="1.49" ry="1.47"/>
    <ellipse class="cls-1" cx="79.19" cy="89.02" rx="1.49" ry="1.47"/>
    <ellipse class="cls-1" cx="79.19" cy="86.08" rx="1.49" ry="1.47"/>
    <ellipse class="cls-1" cx="82.17" cy="86.08" rx="1.49" ry="1.47"/>
    <ellipse class="cls-1" cx="82.17" cy="83.15" rx="1.49" ry="1.47"/>
    <ellipse class="cls-1" cx="85.16" cy="83.15" rx="1.49" ry="1.47"/>
    <ellipse class="cls-1" cx="82.17" cy="80.21" rx="1.49" ry="1.47"/>
    <ellipse class="cls-1" cx="85.16" cy="80.21" rx="1.49" ry="1.47"/>
    <ellipse class="cls-1" cx="88.15" cy="74.33" rx="1.49" ry="1.47"/>
    <ellipse class="cls-1" cx="91.14" cy="71.4" rx="1.49" ry="1.47"/>
    <ellipse class="cls-1" cx="91.14" cy="74.33" rx="1.49" ry="1.47"/>
    <ellipse class="cls-1" cx="91.14" cy="80.21" rx="1.49" ry="1.47"/>
    <ellipse class="cls-1" cx="91.14" cy="83.15" rx="1.49" ry="1.47"/>
    <ellipse class="cls-1" cx="91.14" cy="86.08" rx="1.49" ry="1.47"/>
    <ellipse class="cls-1" cx="88.15" cy="89.02" rx="1.49" ry="1.47"/>
    <ellipse class="cls-1" cx="94.13" cy="77.27" rx="1.49" ry="1.47"/>
    <ellipse class="cls-1" cx="73.21" cy="65.52" rx="1.49" ry="1.47"/>
    <ellipse class="cls-1" cx="97.12" cy="80.21" rx="1.49" ry="1.47"/>
    <ellipse class="cls-1" cx="97.12" cy="77.27" rx="1.49" ry="1.47"/>
    <ellipse class="cls-1" cx="100.11" cy="77.27" rx="1.49" ry="1.47"/>
    <ellipse class="cls-1" cx="94.13" cy="80.21" rx="1.49" ry="1.47"/>
    <ellipse class="cls-1" cx="94.13" cy="74.33" rx="1.49" ry="1.47"/>
    <ellipse class="cls-1" cx="91.14" cy="68.46" rx="1.49" ry="1.47"/>
    <ellipse class="cls-1" cx="94.13" cy="65.52" rx="1.49" ry="1.47"/>
    <ellipse class="cls-1" cx="97.12" cy="65.52" rx="1.49" ry="1.47"/>
    <ellipse class="cls-1" cx="100.11" cy="65.52" rx="1.49" ry="1.47"/>
    <ellipse class="cls-1" cx="103.09" cy="65.52" rx="1.49" ry="1.47"/>
    <ellipse class="cls-1" cx="100.11" cy="68.46" rx="1.49" ry="1.47"/>
    <ellipse class="cls-1" cx="94.13" cy="68.46" rx="1.49" ry="1.47"/>
    <ellipse class="cls-1" cx="97.12" cy="68.46" rx="1.49" ry="1.47"/>
    <ellipse class="cls-1" cx="106.08" cy="68.46" rx="1.49" ry="1.47"/>
    <ellipse class="cls-1" cx="103.09" cy="74.33" rx="1.49" ry="1.47"/>
    <ellipse class="cls-1" cx="97.12" cy="74.33" rx="1.49" ry="1.47"/>
    <ellipse class="cls-1" cx="103.09" cy="77.27" rx="1.49" ry="1.47"/>
    <ellipse class="cls-1" cx="109.07" cy="80.21" rx="1.49" ry="1.47"/>
    <ellipse class="cls-1" cx="109.07" cy="83.15" rx="1.49" ry="1.47"/>
    <ellipse class="cls-1" cx="109.07" cy="86.08" rx="1.49" ry="1.47"/>
    <ellipse class="cls-1" cx="94.13" cy="83.15" rx="1.49" ry="1.47"/>
    <ellipse class="cls-1" cx="94.13" cy="86.08" rx="1.49" ry="1.47"/>
    <ellipse class="cls-1" cx="91.14" cy="89.02" rx="1.49" ry="1.47"/>
    <ellipse class="cls-1" cx="106.08" cy="80.21" rx="1.49" ry="1.47"/>
    <ellipse class="cls-1" cx="100.11" cy="74.33" rx="1.49" ry="1.47"/>
    <ellipse class="cls-1" cx="103.09" cy="68.46" rx="1.49" ry="1.47"/>
    <ellipse class="cls-1" cx="106.08" cy="71.4" rx="1.49" ry="1.47"/>
    <ellipse class="cls-1" cx="106.08" cy="74.33" rx="1.49" ry="1.47"/>
    <ellipse class="cls-1" cx="52.29" cy="80.21" rx="1.49" ry="1.47"/>
    <ellipse class="cls-1" cx="55.28" cy="80.21" rx="1.49" ry="1.47"/>
    <ellipse class="cls-1" cx="55.28" cy="74.33" rx="1.49" ry="1.47"/>
    <ellipse class="cls-1" cx="52.29" cy="74.33" rx="1.49" ry="1.47"/>
    <ellipse class="cls-1" cx="49.3" cy="74.33" rx="1.49" ry="1.47"/>
    <ellipse class="cls-1" cx="49.3" cy="77.27" rx="1.49" ry="1.47"/>
    <ellipse class="cls-1" cx="52.29" cy="77.27" rx="1.49" ry="1.47"/>
    <ellipse class="cls-1" cx="55.28" cy="77.27" rx="1.49" ry="1.47"/>
    <ellipse class="cls-1" cx="61.26" cy="68.46" rx="1.49" ry="1.47"/>
    <ellipse class="cls-1" cx="58.27" cy="68.46" rx="1.49" ry="1.47"/>
    <ellipse class="cls-1" cx="55.28" cy="68.46" rx="1.49" ry="1.47"/>
    <ellipse class="cls-1" cx="49.3" cy="71.4" rx="1.49" ry="1.47"/>
    <ellipse class="cls-1" cx="52.29" cy="71.4" rx="1.49" ry="1.47"/>
    <ellipse class="cls-1" cx="55.28" cy="71.4" rx="1.49" ry="1.47"/>
    <ellipse class="cls-1" cx="58.27" cy="62.59" rx="1.49" ry="1.47"/>
    <ellipse class="cls-1" cx="55.28" cy="62.59" rx="1.49" ry="1.47"/>
    <ellipse class="cls-1" cx="52.29" cy="62.59" rx="1.49" ry="1.47"/>
    <ellipse class="cls-1" cx="52.29" cy="65.52" rx="1.49" ry="1.47"/>
    <ellipse class="cls-1" cx="55.28" cy="65.52" rx="1.49" ry="1.47"/>
    <ellipse class="cls-1" cx="58.27" cy="65.52" rx="1.49" ry="1.47"/>
    <ellipse class="cls-1" cx="67.23" cy="56.71" rx="1.49" ry="1.47"/>
    <ellipse class="cls-1" cx="64.24" cy="56.71" rx="1.49" ry="1.47"/>
    <ellipse class="cls-1" cx="61.26" cy="56.71" rx="1.49" ry="1.47"/>
    <ellipse class="cls-1" cx="61.26" cy="59.65" rx="1.49" ry="1.47"/>
    <ellipse class="cls-1" cx="64.24" cy="59.65" rx="1.49" ry="1.47"/>
    <ellipse class="cls-1" cx="76.2" cy="53.78" rx="1.49" ry="1.47"/>
    <ellipse class="cls-1" cx="73.21" cy="53.78" rx="1.49" ry="1.47"/>
    <ellipse class="cls-1" cx="70.22" cy="53.78" rx="1.49" ry="1.47"/>
    <ellipse class="cls-1" cx="70.22" cy="56.71" rx="1.49" ry="1.47"/>
    <ellipse class="cls-1" cx="73.21" cy="56.71" rx="1.49" ry="1.47"/>
    <ellipse class="cls-1" cx="76.2" cy="56.71" rx="1.49" ry="1.47"/>
    <ellipse class="cls-1" cx="58.27" cy="59.65" rx="1.49" ry="1.47"/>
    <ellipse class="cls-1" cx="58.27" cy="56.71" rx="1.49" ry="1.47"/>
    <ellipse class="cls-1" cx="55.28" cy="56.71" rx="1.49" ry="1.47"/>
    <ellipse class="cls-1" cx="49.3" cy="62.59" rx="1.49" ry="1.47"/>
    <ellipse class="cls-1" cx="58.27" cy="86.08" rx="1.49" ry="1.47"/>
    <ellipse class="cls-1" cx="58.27" cy="83.15" rx="1.49" ry="1.47"/>
    <ellipse class="cls-1" cx="58.27" cy="77.27" rx="1.49" ry="1.47"/>
    <ellipse class="cls-1" cx="58.27" cy="80.21" rx="1.49" ry="1.47"/>
    <ellipse class="cls-1" cx="64.24" cy="91.96" rx="1.49" ry="1.47"/>
    <ellipse class="cls-1" cx="61.26" cy="89.02" rx="1.49" ry="1.47"/>
    <ellipse class="cls-1" cx="61.26" cy="86.08" rx="1.49" ry="1.47"/>
    <ellipse class="cls-1" cx="67.23" cy="94.89" rx="1.49" ry="1.47"/>
    <ellipse class="cls-1" cx="64.24" cy="89.02" rx="1.49" ry="1.47"/>
    <ellipse class="cls-1" cx="61.26" cy="91.96" rx="1.49" ry="1.47"/>
  </g>
</svg>