<?xml version="1.0" encoding="UTF-8"?>
<svg id="Calque_1" xmlns="http://www.w3.org/2000/svg" version="1.1" viewBox="0 0 16 16">
  <!-- Generator: Adobe Illustrator 29.2.1, SVG Export Plug-In . SVG Version: 2.1.0 Build 116)  -->
  <defs>
    <style>
      .st0 {
        fill: none;
      }

      .st1 {
        fill: #0d7300ff;
      }
    </style>
  </defs>
  <path class="st1" d="M3.17,7.75c5.88-5.88,10.96-.8,5.08,5.08-1.99,1.99,5.08-2.28,5.08-5.08s-2.28-5.08-5.08-5.08S1.19,9.73,3.17,7.75Z"/>
  <path class="st0" d="M4.03,9.56c0-.3.08-.6.25-.84.05.15.09.31.14.46.03-.03.06-.06.09-.09"/>
  <path class="st0" d="M3.96,9.37c.11-.35.24-.71.51-.96.12-.11.33-.19.45-.07.05.05.07.13.08.2.02.12.05.24.07.35"/>
  <path class="st1" d="M4.55,10.2c-.11-.55.03-1.15.36-1.6.17.31.28.66.32,1.01-.06-.43-.08-.95.27-1.21.14.33.22.68.23,1.03-.07-.42,0-.86.18-1.25.1.46.62.74,1.1.7.22-.02.45-.11.54-.31.09-.22-.1-.5-.33-.51s-.44.27-.36.49c.03.08.08.14.14.2.26.24.67.27.98.11s.51-.5.54-.85c.02-.24-.1-.55-.34-.57-.29-.02-.43.41-.26.64s.5.29.79.3c.52.01,1.04-.09,1.52-.29"/>
</svg>